# xmcd
#
# Track frame offsets:
#	150
#	18962
#	38378
#	61995
#	85053
#	103975
#	122554
#	138956
#	158706
#	174950
#
# Disc length: 2599 seconds
#
# Revision: 0
# Processed by: cddbd v1.5.2PL0 Copyright (c) Steve Scherf et al.
# Submitted via: EasyCDDAExtractor 16.0.6.1
#
DISCID=6f0a250a
DTITLE=Вячеслав Быков - Я прихожу к тебе, когда город спит
DYEAR=1900
DGENRE=Pop
TTITLE0=Девочка-ночь
TTITLE1=Позови и я приду
TTITLE2=Я прихожу к тебе, когда город спит
TTITLE3=Две удачи
TTITLE4=Ты лети по свету
TTITLE5=Ты мне только не смотри в след
TTITLE6=Накажи
TTITLE7=Музыкант
TTITLE8=Серый дождь
TTITLE9=В старом дворце
EXTD=
EXTT0=
EXTT1=
EXTT2=
EXTT3=
EXTT4=
EXTT5=
EXTT6=
EXTT7=
EXTT8=
EXTT9=
PLAYORDER=
